<?xml version="1.0" encoding="utf-8"?>
<!-- Generator: Adobe Illustrator 22.1.0, SVG Export Plug-In . SVG Version: 6.00 Build 0)  -->
<svg version="1.1" id="Слой_1" xmlns="http://www.w3.org/2000/svg" xmlns:xlink="http://www.w3.org/1999/xlink" x="0px" y="0px"
	 viewBox="0 0 100.6 103.1" style="enable-background:new 0 0 100.6 103.1;" xml:space="preserve">
<style type="text/css">
	.st0{opacity:0.77;fill:#00ECC2;enable-background:new    ;}
</style>
<path class="st0" d="M25.9,11.8v15.9l0,0v54.1c-3.6-1.3-8.4-1.4-13.2,0.2C4.1,84.7-1.4,91.4,0.3,96.9c1.8,5.5,10.1,7.7,18.7,5
	C26.5,99.5,31.7,94,31.7,89l0,0V26.8l63.1-10V70c-3.6-1.3-8.4-1.4-13.2,0.2C73,73,67.5,79.6,69.2,85.1c1.8,5.5,10.1,7.7,18.7,5
	c7.5-2.4,12.7-7.9,12.7-12.9V15.9V0l-5.8,0.9L25.9,11.8z"/>
</svg>
