<?xml version="1.0" encoding="utf-8"?>
<!-- Generator: Adobe Illustrator 22.1.0, SVG Export Plug-In . SVG Version: 6.00 Build 0)  -->
<svg version="1.1" id="Слой_1" xmlns="http://www.w3.org/2000/svg" xmlns:xlink="http://www.w3.org/1999/xlink" x="0px" y="0px"
	 viewBox="0 0 91.6 158.4" style="enable-background:new 0 0 91.6 158.4;" xml:space="preserve">
<style type="text/css">
	.st0{opacity:0.75;fill:#00ECC2;enable-background:new    ;}
</style>
<path class="st0" d="M45.4,2.6L45,0v121.5c-6.2-2.3-14.5-2.4-23,0.3c-14.9,4.8-24.5,16.4-21.5,25.9c3.1,9.5,17.6,13.4,32.5,8.6
	c13.1-4.2,22.1-13.6,22-22.3l0,0V34.8c6.2,2.1,28.4,10.6,28.4,27.5c0,19.6-17.2,34.2-17.2,34.2s25.4-15.4,25.4-37.7
	C91.6,37.2,50.1,24,45.4,2.6z M31.4,149.8c-12.2,3.9-23.7,2.3-25.6-3.7c-1.9-6,6.5-13.9,18.7-17.9c12.2-3.9,23.7-2.3,25.6,3.7
	C52,137.9,43.6,145.9,31.4,149.8z"/>
</svg>
