<?xml version="1.0" encoding="utf-8"?>
<!-- Generator: Adobe Illustrator 22.1.0, SVG Export Plug-In . SVG Version: 6.00 Build 0)  -->
<svg version="1.1" id="Слой_1" xmlns="http://www.w3.org/2000/svg" xmlns:xlink="http://www.w3.org/1999/xlink" x="0px" y="0px"
	 viewBox="0 0 77.9 134.7" style="enable-background:new 0 0 77.9 134.7;" xml:space="preserve">
<style type="text/css">
	.st0{opacity:0.75;fill:#00ECC2;enable-background:new    ;}
</style>
<path class="st0" d="M38.5,2.2L38.2,0v103.3c-5.3-2-12.3-2-19.5,0.3c-12.7,4.1-20.8,13.9-18.2,22s15,11.4,27.6,7.3
	c11.1-3.6,18.8-11.6,18.7-19l0,0V55.3l-0.4-2.5c0,0,14.3,4.7,21.1,14.4c-4.3,9-11.2,14.9-11.2,14.9s7.1-4.3,13.1-11.5
	c1,2.1,1.5,4.5,1.5,7c0,16.7-14.6,29.1-14.6,29.1s21.6-13,21.6-32.1c0-4-1.5-7.6-3.8-10.8c2.2-4.1,3.8-8.7,3.8-13.8
	C77.8,31.7,42.5,20.4,38.5,2.2z M70.2,59.4C60.6,50.1,45.4,43.5,45.4,34v-4.8c0,0,25.5,7.2,25.5,23.8C70.9,55.2,70.6,57.3,70.2,59.4
	z"/>
</svg>
