<?xml version="1.0" encoding="utf-8"?>
<!-- Generator: Adobe Illustrator 22.1.0, SVG Export Plug-In . SVG Version: 6.00 Build 0)  -->
<svg version="1.1" id="Слой_1" xmlns="http://www.w3.org/2000/svg" xmlns:xlink="http://www.w3.org/1999/xlink" x="0px" y="0px"
	 viewBox="0 0 65.8 159" style="enable-background:new 0 0 65.8 159;" xml:space="preserve">
<style type="text/css">
	.st0{fill:#1F2B29;}
</style>
<path class="st0" d="M65.8,99.5c0-7.8-5-24-21.8-24c-1.9,0-3.8,0.2-5.5,0.5c-0.9-7.6-1.6-13-1.6-13C63,41.2,54.6,19.2,51.3,11.7
	s-13.1-22-20.6,0c-2.8,8.1-1.6,24.2,0.9,42.4c-1.2,0.9-5.2,4.1-16.9,15.3C-0.1,83.6,0,90.5,0,97c0,6.6,4.5,28.2,32.5,28.2
	c3.9,0,7.4-0.4,10.5-1c0.8,5.8,1.2,10.7,1.2,14.2C44,158.2,29.1,157,24.1,156c4.8-0.6,8.4-4.7,8.4-9.6c0-5.4-4.3-9.7-9.7-9.7
	s-9.7,4.3-9.7,9.7c0,6.9,3.9,12.6,15.4,12.6c21.3,0,19.4-23.7,17.2-35.4C62.3,119,65.8,105.9,65.8,99.5z M43.9,8.6
	c0,0,6.1,1.8,6.1,16.6S34.6,51,34.6,51S28.3,21.1,43.9,8.6z M37.1,122.3c-12.5,0-30.3-4.8-30.3-22.6s26.5-33.5,26.5-33.5l0,0
	c0.6,3.5,1.1,7,1.7,10.6c-11.4,3.4-17.8,12.8-17.8,19.3c0,8.1,8.4,12.7,8.4,12.7c-6-8.4-0.6-21.6,11-22.6
	c2.3,12.9,4.5,25.4,5.9,35.4C40.9,122,39.1,122.3,37.1,122.3z M44.2,117.2c-1.1-6.1-2.9-19.2-4.5-31.1c11.4,0.5,17.7,6.5,17.7,16.2
	c0,7.7-4.6,15.3-12.3,18.5C44.6,118.6,44.2,117.2,44.2,117.2z"/>
</svg>
