<?xml version="1.0" encoding="utf-8"?>
<!-- Generator: Adobe Illustrator 22.1.0, SVG Export Plug-In . SVG Version: 6.00 Build 0)  -->
<svg version="1.1" id="Слой_1" xmlns="http://www.w3.org/2000/svg" xmlns:xlink="http://www.w3.org/1999/xlink" x="0px" y="0px"
	 viewBox="0 0 1920 800" style="enable-background:new 0 0 1920 800;" xml:space="preserve">
<style type="text/css">
	.st0{opacity:0.1;fill:#00ECC2;}
	.st1{opacity:0.8;fill:#00ECC2;}
	.st2{opacity:0.2;fill:#00ECC2;}
	.st3{opacity:0.3;fill:#00ECC2;}
	.st4{opacity:0.4;fill:#00ECC2;}
	.st5{opacity:0.5;fill:#00ECC2;}
	.st6{opacity:0.9;fill:#00ECC2;}
	.st7{opacity:0.7;fill:#00ECC2;}
	.st8{opacity:5.000000e-02;fill:#00ECC2;}
	.st9{opacity:0.6;fill:#00ECC2;}
	.st10{fill:#00ECC2;}
</style>
<polygon class="st0" points="132.3,439.6 123.1,439.6 123.1,432 107.3,432 107.3,439.6 100.7,439.6 100.7,423.6 69.6,423.6 
	69.6,439.6 69.6,454.6 69.6,791 154.2,791 154.2,663.5 132.3,663.5 "/>
<polygon class="st0" points="1814.3,439.6 1805.1,439.6 1805.1,432 1789.3,432 1789.3,439.6 1782.7,439.6 1782.7,423.6 
	1751.6,423.6 1751.6,439.6 1751.6,454.6 1751.6,791 1836.2,791 1836.2,663.5 1814.3,663.5 "/>
<polygon class="st1" points="789.3,439.6 780.1,439.6 780.1,432 764.3,432 764.3,439.6 757.7,439.6 757.7,423.6 726.6,423.6 
	726.6,439.6 726.6,454.6 726.6,791 811.2,791 811.2,663.5 789.3,663.5 "/>
<polygon class="st2" points="226.1,409.6 220.4,409.6 220.4,398 191.1,398 191.1,409.6 185.4,409.6 185.4,663.5 163.5,663.5 
	163.5,791 248,791 248,663.5 226.1,663.5 "/>
<polygon class="st3" points="1625.1,409.6 1619.4,409.6 1619.4,398 1590.1,398 1590.1,409.6 1584.4,409.6 1584.4,663.5 
	1562.5,663.5 1562.5,791 1647,791 1647,663.5 1625.1,663.5 "/>
<polygon class="st3" points="319.9,558.1 319.9,528.5 319.9,487.4 311.6,487.4 311.6,528.5 296.6,528.5 296.6,524.3 306,524.3 
	306,521.2 283.4,521.2 283.4,524.3 292.8,524.3 292.8,528.5 279.2,528.5 279.2,663.5 257.3,663.5 257.3,791 341.9,791 341.9,663.5 
	319.9,663.5 "/>
<polygon class="st4" points="373.1,663.5 351.1,663.5 351.1,791 435.7,791 435.7,423.6 373.1,454.6 "/>
<polygon class="st2" points="1679.1,663.5 1657.1,663.5 1657.1,791 1741.7,791 1741.7,423.6 1679.1,454.6 "/>
<polygon class="st5" points="507.6,537.1 445,506 445,791 529.5,791 529.5,663.5 507.6,663.5 "/>
<polygon class="st6" points="883,439.6 862.6,439.6 842.2,471.4 842.2,663.5 820.3,663.5 820.3,791 904.9,791 904.9,663.5 
	883,663.5 "/>
<polygon class="st1" points="1164.5,516.9 1101.8,486.1 1101.8,791 1186.4,791 1186.4,663.5 1164.5,663.5 "/>
<polygon class="st5" points="1437.5,516.9 1374.8,486.1 1374.8,791 1459.4,791 1459.4,663.5 1437.5,663.5 "/>
<polygon class="st7" points="1258.3,663.5 1258.3,439.6 1252.9,439.6 1252.9,429.2 1248.2,429.2 1248.2,424 1227.7,424 
	1227.7,429.2 1223,429.2 1223,439.6 1217.6,439.6 1217.6,663.5 1195.7,663.5 1195.7,791 1271,791 1271,663.5 "/>
<polygon class="st8" points="60.3,349.3 60.3,791 0,791 0,388.2 35.8,388.2 35.8,349.3 "/>
<polygon class="st7" points="691.5,423.6 671.9,423.6 671.9,402.3 654.6,402.3 654.6,423.6 654.6,663.5 632.6,663.5 632.6,791 
	717.2,791 717.2,423.6 717.2,412.9 691.5,412.9 "/>
<polygon class="st8" points="1920,412.9 1920,791 1845.6,791 1845.6,663.5 1867.6,663.5 1867.6,402.3 1884.9,402.3 1884.9,423.5 
	1904.6,423.5 1904.6,412.9 "/>
<polygon class="st6" points="1083.1,510.3 1060.6,510.3 1060.6,537.1 1054.8,537.1 1054.8,523.2 1035.7,523.2 1035.7,537.1 
	1029.9,537.1 1029.9,663.5 1008,663.5 1008,791 1092.5,791 1092.5,537.1 1083.1,537.1 "/>
<polygon class="st9" points="1356.1,510.3 1333.6,510.3 1333.6,537.1 1327.8,537.1 1327.8,523.2 1308.7,523.2 1308.7,537.1 
	1302.9,537.1 1302.9,663.5 1281,663.5 1281,791 1365.5,791 1365.5,537.1 1356.1,537.1 "/>
<polygon class="st9" points="601.8,498.6 601.8,478.6 601.8,437 581.4,447.3 581.4,478.6 561.1,478.6 561.1,663.6 539.2,663.6 
	539.2,791 623.7,791 623.7,663.6 601.8,663.6 "/>
<polygon class="st10" points="976.2,538.1 967.7,538.1 967.7,527.1 950.9,527.1 950.9,538.1 946.2,538.1 946.2,518 942.9,518 
	942.9,538.1 935.7,538.1 935.7,664.1 913.8,664.1 913.8,791 998,791 998,664.1 976.2,664.1 "/>
<polygon class="st4" points="1531.2,538.1 1522.7,538.1 1522.7,527.1 1505.9,527.1 1505.9,538.1 1501.2,538.1 1501.2,518 
	1497.9,518 1497.9,538.1 1490.7,538.1 1490.7,664.1 1468.8,664.1 1468.8,791 1553,791 1553,664.1 1531.2,664.1 "/>
</svg>
