<?xml version="1.0" encoding="utf-8"?>
<!-- Generator: Adobe Illustrator 22.1.0, SVG Export Plug-In . SVG Version: 6.00 Build 0)  -->
<svg version="1.1" id="Слой_1" xmlns="http://www.w3.org/2000/svg" xmlns:xlink="http://www.w3.org/1999/xlink" x="0px" y="0px"
	 viewBox="0 0 200 200" style="enable-background:new 0 0 200 200;" xml:space="preserve">
<style type="text/css">
	.st0{opacity:0.77;fill:#00ECC2;}
</style>
<path class="st0" d="M142.4,77.8V60.6v0l0,0L68.1,48.8h0l-6.3-1V65v58.3c-3.8-1.4-9-1.5-14.3,0.2c-9.3,3-15.2,10.2-13.3,16.1
	c1.9,5.9,10.9,8.3,20.2,5.4c8.1-2.6,13.7-8.5,13.7-13.9h0V77l68,10.8v48.3c-3.8-1.4-9-1.5-14.3,0.2c-9.3,3-15.2,10.2-13.3,16.1
	c1.9,5.9,10.9,8.3,20.2,5.3c8.1-2.6,13.7-8.5,13.7-13.9v-55l0,0v-4.5l0,0V77.8z M68.1,72.5V66l68,10.8v6.5L68.1,72.5z"/>
</svg>
