<?xml version="1.0" encoding="utf-8"?>
<!-- Generator: Adobe Illustrator 22.1.0, SVG Export Plug-In . SVG Version: 6.00 Build 0)  -->
<svg version="1.1" id="Слой_1" xmlns="http://www.w3.org/2000/svg" xmlns:xlink="http://www.w3.org/1999/xlink" x="0px" y="0px"
	 viewBox="0 0 200 200" style="enable-background:new 0 0 200 200;" xml:space="preserve">
<style type="text/css">
	.st0{opacity:0.75;fill:#00ECC2;}
</style>
<path class="st0" d="M71.4,35.2L71.1,33v103.3c-5.3-2-12.3-2-19.5,0.3c-12.7,4.1-20.8,13.9-18.2,22c2.6,8.1,15,11.4,27.6,7.3
	c11.1-3.6,18.8-11.6,18.7-19h0V88.3l-0.4-2.5c0,0,14.3,4.7,21.1,14.4c-4.3,9-11.2,14.9-11.2,14.9s7.1-4.3,13.1-11.5
	c1,2.1,1.5,4.5,1.5,7c0,16.7-14.6,29.1-14.6,29.1s21.6-13,21.6-32.1c0-4-1.5-7.6-3.8-10.8c2.2-4.1,3.8-8.7,3.8-13.8
	C110.7,64.7,75.4,53.4,71.4,35.2z M103.1,92.4C93.5,83.1,78.3,76.5,78.3,67v-4.8c0,0,25.5,7.2,25.5,23.8
	C103.8,88.2,103.5,90.3,103.1,92.4z"/>
</svg>
