<?xml version="1.0" encoding="utf-8"?>
<!-- Generator: Adobe Illustrator 22.1.0, SVG Export Plug-In . SVG Version: 6.00 Build 0)  -->
<svg version="1.1" id="Слой_1" xmlns="http://www.w3.org/2000/svg" xmlns:xlink="http://www.w3.org/1999/xlink" x="0px" y="0px"
	 viewBox="0 0 200 200" style="enable-background:new 0 0 200 200;" xml:space="preserve">
<style type="text/css">
	.st0{opacity:0.75;fill:#00ECC2;}
</style>
<path class="st0" d="M72.8,17.5l-0.4-2.6v121.5c-6.2-2.3-14.5-2.4-23,0.3c-14.9,4.8-24.5,16.4-21.5,25.9c3.1,9.5,17.6,13.4,32.5,8.6
	c13.1-4.2,22.1-13.6,22-22.3h0V49.7c6.2,2.1,28.4,10.6,28.4,27.5c0,19.6-17.2,34.2-17.2,34.2S119,96,119,73.7
	C119,52.1,77.5,38.9,72.8,17.5z M58.8,164.7c-12.2,3.9-23.7,2.3-25.6-3.7c-1.9-6,6.5-13.9,18.7-17.9c12.2-3.9,23.7-2.3,25.6,3.7
	C79.4,152.8,71,160.8,58.8,164.7z"/>
</svg>
