<?xml version="1.0" encoding="utf-8"?>
<!-- Generator: Adobe Illustrator 22.1.0, SVG Export Plug-In . SVG Version: 6.00 Build 0)  -->
<svg version="1.1" id="Слой_1" xmlns="http://www.w3.org/2000/svg" xmlns:xlink="http://www.w3.org/1999/xlink" x="0px" y="0px"
	 viewBox="0 0 200 200" style="enable-background:new 0 0 200 200;" xml:space="preserve">
<style type="text/css">
	.st0{opacity:0.77;fill:#00ECC2;}
</style>
<path class="st0" d="M146.9,55.4V37.1l-6.7,1.1L60.7,50.8v18.3l0,0v7.2v4.8v50.3c-4.1-1.5-9.6-1.6-15.3,0.2
	c-9.9,3.2-16.3,10.9-14.3,17.2c2,6.3,11.7,8.9,21.6,5.7c8.7-2.8,14.7-9.1,14.6-14.8h0V80.1l72.8-11.5v49.3
	c-4.1-1.5-9.6-1.6-15.3,0.2c-9.9,3.2-16.3,10.9-14.3,17.2c2,6.3,11.7,8.9,21.6,5.7c8.7-2.8,14.7-9.1,14.6-14.8V67.5l0,0v-4.8l0,0
	V55.4z M67.4,75.3v-7.2l72.8-11.6v7.2L67.4,75.3z"/>
</svg>
