<?xml version="1.0" encoding="utf-8"?>
<!-- Generator: Adobe Illustrator 22.1.0, SVG Export Plug-In . SVG Version: 6.00 Build 0)  -->
<svg version="1.1" id="Слой_1" xmlns="http://www.w3.org/2000/svg" xmlns:xlink="http://www.w3.org/1999/xlink" x="0px" y="0px"
	 viewBox="0 0 1920 441.7" style="enable-background:new 0 0 1920 441.7;" xml:space="preserve">
<style type="text/css">
	.st0{opacity:0.1;fill:#00ECC2;enable-background:new    ;}
	.st1{opacity:0.8;fill:#00ECC2;enable-background:new    ;}
	.st2{opacity:0.2;fill:#00ECC2;enable-background:new    ;}
	.st3{opacity:0.3;fill:#00ECC2;enable-background:new    ;}
	.st4{opacity:0.4;fill:#00ECC2;enable-background:new    ;}
	.st5{opacity:0.5;fill:#00ECC2;enable-background:new    ;}
	.st6{opacity:0.9;fill:#00ECC2;enable-background:new    ;}
	.st7{opacity:0.7;fill:#00ECC2;enable-background:new    ;}
	.st8{opacity:5.000000e-02;fill:#00ECC2;enable-background:new    ;}
	.st9{opacity:0.6;fill:#00ECC2;enable-background:new    ;}
	.st10{fill:#00ECC2;}
</style>
<polygon class="st0" points="132.3,90.3 123.1,90.3 123.1,82.7 107.3,82.7 107.3,90.3 100.7,90.3 100.7,74.3 69.6,74.3 69.6,90.3 
	69.6,105.3 69.6,441.7 154.2,441.7 154.2,314.2 132.3,314.2 "/>
<polygon class="st0" points="1814.3,90.3 1805.1,90.3 1805.1,82.7 1789.3,82.7 1789.3,90.3 1782.7,90.3 1782.7,74.3 1751.6,74.3 
	1751.6,90.3 1751.6,105.3 1751.6,441.7 1836.2,441.7 1836.2,314.2 1814.3,314.2 "/>
<polygon class="st1" points="789.3,90.3 780.1,90.3 780.1,82.7 764.3,82.7 764.3,90.3 757.7,90.3 757.7,74.3 726.6,74.3 726.6,90.3 
	726.6,105.3 726.6,441.7 811.2,441.7 811.2,314.2 789.3,314.2 "/>
<polygon class="st2" points="226.1,60.3 220.4,60.3 220.4,48.7 191.1,48.7 191.1,60.3 185.4,60.3 185.4,314.2 163.5,314.2 
	163.5,441.7 248,441.7 248,314.2 226.1,314.2 "/>
<polygon class="st3" points="1625.1,60.3 1619.4,60.3 1619.4,48.7 1590.1,48.7 1590.1,60.3 1584.4,60.3 1584.4,314.2 1562.5,314.2 
	1562.5,441.7 1647,441.7 1647,314.2 1625.1,314.2 "/>
<polygon class="st3" points="319.9,208.8 319.9,179.2 319.9,138.1 311.6,138.1 311.6,179.2 296.6,179.2 296.6,175 306,175 
	306,171.9 283.4,171.9 283.4,175 292.8,175 292.8,179.2 279.2,179.2 279.2,314.2 257.3,314.2 257.3,441.7 341.9,441.7 341.9,314.2 
	319.9,314.2 "/>
<polygon class="st4" points="373.1,314.2 351.1,314.2 351.1,441.7 435.7,441.7 435.7,74.3 373.1,105.3 "/>
<polygon class="st2" points="1679.1,314.2 1657.1,314.2 1657.1,441.7 1741.7,441.7 1741.7,74.3 1679.1,105.3 "/>
<polygon class="st5" points="507.6,187.8 445,156.7 445,441.7 529.5,441.7 529.5,314.2 507.6,314.2 "/>
<polygon class="st6" points="883,90.3 862.6,90.3 842.2,122.1 842.2,314.2 820.3,314.2 820.3,441.7 904.9,441.7 904.9,314.2 
	883,314.2 "/>
<polygon class="st1" points="1164.5,167.6 1101.8,136.8 1101.8,441.7 1186.4,441.7 1186.4,314.2 1164.5,314.2 "/>
<polygon class="st5" points="1437.5,167.6 1374.8,136.8 1374.8,441.7 1459.4,441.7 1459.4,314.2 1437.5,314.2 "/>
<polygon class="st7" points="1258.3,314.2 1258.3,90.3 1252.9,90.3 1252.9,79.9 1248.2,79.9 1248.2,74.7 1227.7,74.7 1227.7,79.9 
	1223,79.9 1223,90.3 1217.6,90.3 1217.6,314.2 1195.7,314.2 1195.7,441.7 1271,441.7 1271,314.2 "/>
<polygon class="st8" points="60.3,0 60.3,441.7 0,441.7 0,38.9 35.8,38.9 35.8,0 "/>
<polygon class="st7" points="691.5,74.3 671.9,74.3 671.9,53 654.6,53 654.6,74.3 654.6,314.2 632.6,314.2 632.6,441.7 717.2,441.7 
	717.2,74.3 717.2,63.6 691.5,63.6 "/>
<polygon class="st8" points="1920,63.6 1920,441.7 1845.6,441.7 1845.6,314.2 1867.6,314.2 1867.6,53 1884.9,53 1884.9,74.2 
	1904.6,74.2 1904.6,63.6 "/>
<polygon class="st6" points="1083.1,161 1060.6,161 1060.6,187.8 1054.8,187.8 1054.8,173.9 1035.7,173.9 1035.7,187.8 
	1029.9,187.8 1029.9,314.2 1008,314.2 1008,441.7 1092.5,441.7 1092.5,187.8 1083.1,187.8 "/>
<polygon class="st9" points="1356.1,161 1333.6,161 1333.6,187.8 1327.8,187.8 1327.8,173.9 1308.7,173.9 1308.7,187.8 
	1302.9,187.8 1302.9,314.2 1281,314.2 1281,441.7 1365.5,441.7 1365.5,187.8 1356.1,187.8 "/>
<polygon class="st9" points="601.8,149.3 601.8,129.3 601.8,87.7 581.4,98 581.4,129.3 561.1,129.3 561.1,314.3 539.2,314.3 
	539.2,441.7 623.7,441.7 623.7,314.3 601.8,314.3 "/>
<polygon class="st10" points="976.2,188.8 967.7,188.8 967.7,177.8 950.9,177.8 950.9,188.8 946.2,188.8 946.2,168.7 942.9,168.7 
	942.9,188.8 935.7,188.8 935.7,314.8 913.8,314.8 913.8,441.7 998,441.7 998,314.8 976.2,314.8 "/>
<polygon class="st4" points="1531.2,188.8 1522.7,188.8 1522.7,177.8 1505.9,177.8 1505.9,188.8 1501.2,188.8 1501.2,168.7 
	1497.9,168.7 1497.9,188.8 1490.7,188.8 1490.7,314.8 1468.8,314.8 1468.8,441.7 1553,441.7 1553,314.8 1531.2,314.8 "/>
</svg>
