<?xml version="1.0" encoding="utf-8"?>
<!-- Generator: Adobe Illustrator 22.1.0, SVG Export Plug-In . SVG Version: 6.00 Build 0)  -->
<svg version="1.1" id="Слой_1" xmlns="http://www.w3.org/2000/svg" xmlns:xlink="http://www.w3.org/1999/xlink" x="0px" y="0px"
	 viewBox="0 0 116.2 118.8" style="enable-background:new 0 0 116.2 118.8;" xml:space="preserve">
<style type="text/css">
	.st0{opacity:0.77;fill:#00ECC2;enable-background:new    ;}
</style>
<path class="st0" d="M116.2,18.3V0l-6.7,1.1L30,13.7V32l0,0v7.2V44v50.3c-4.1-1.5-9.6-1.6-15.3,0.2c-9.9,3.2-16.3,10.9-14.3,17.2
	s11.7,8.9,21.6,5.7c8.7-2.8,14.7-9.1,14.6-14.8l0,0V43l72.8-11.5v49.3c-4.1-1.5-9.6-1.6-15.3,0.2c-9.9,3.2-16.3,10.9-14.3,17.2
	s11.7,8.9,21.6,5.7c8.7-2.8,14.7-9.1,14.6-14.8V30.4l0,0v-4.8l0,0v-7.3H116.2z M36.7,38.2V31l72.8-11.6v7.2L36.7,38.2z"/>
</svg>
