<?xml version="1.0" encoding="utf-8"?>
<!-- Generator: Adobe Illustrator 22.1.0, SVG Export Plug-In . SVG Version: 6.00 Build 0)  -->
<svg version="1.1" id="Слой_1" xmlns="http://www.w3.org/2000/svg" xmlns:xlink="http://www.w3.org/1999/xlink" x="0px" y="0px"
	 viewBox="0 0 200 200" style="enable-background:new 0 0 200 200;" xml:space="preserve">
<style type="text/css">
	.st0{opacity:0.77;fill:#00ECC2;}
</style>
<path class="st0" d="M51.2,48v15.9h0V118c-3.6-1.3-8.4-1.4-13.2,0.2c-8.6,2.7-14.1,9.4-12.4,14.9c1.8,5.5,10.1,7.7,18.7,5
	c7.5-2.4,12.7-7.9,12.7-12.9h0V63l63.1-10v53.2c-3.6-1.3-8.4-1.4-13.2,0.2c-8.6,2.8-14.1,9.4-12.4,14.9c1.8,5.5,10.1,7.7,18.7,5
	c7.5-2.4,12.7-7.9,12.7-12.9V52.1V36.2l-5.8,0.9L51.2,48z"/>
</svg>
